<svg width="25" height="25" viewBox="0 0 25 25" fill="none" xmlns="http://www.w3.org/2000/svg">
<path d="M5.78117 18.3593C6.87492 17.5954 7.95999 17.0095 9.03638 16.6015C10.1128 16.1935 11.2673 15.9895 12.4999 15.9895C13.7326 15.9895 14.8914 16.1935 15.9765 16.6015C17.0616 17.0095 18.151 17.5954 19.2447 18.3593C20.0086 17.4218 20.5511 16.4756 20.8723 15.5208C21.1935 14.5659 21.3541 13.5589 21.3541 12.4999C21.3541 9.98256 20.5077 7.87752 18.815 6.18481C17.1223 4.49211 15.0173 3.64575 12.4999 3.64575C9.98256 3.64575 7.87752 4.49211 6.18481 6.18481C4.49211 7.87752 3.64575 9.98256 3.64575 12.4999C3.64575 13.5589 3.81068 14.5659 4.14054 15.5208C4.47041 16.4756 5.01728 17.4218 5.78117 18.3593ZM12.4951 13.2812C11.4914 13.2812 10.6466 12.9367 9.96086 12.2477C9.27509 11.5587 8.93221 10.7123 8.93221 9.70862C8.93221 8.7049 9.27671 7.86016 9.9657 7.1744C10.6547 6.48863 11.501 6.14575 12.5048 6.14575C13.5085 6.14575 14.3532 6.49025 15.039 7.17924C15.7247 7.86823 16.0676 8.71459 16.0676 9.7183C16.0676 10.722 15.7231 11.5668 15.0341 12.2525C14.3451 12.9383 13.4988 13.2812 12.4951 13.2812ZM12.5121 22.9166C11.0804 22.9166 9.73082 22.6431 8.46346 22.0963C7.1961 21.5494 6.08933 20.8029 5.14315 19.8567C4.19697 18.9105 3.45044 17.8058 2.90356 16.5425C2.35669 15.2792 2.08325 13.9293 2.08325 12.493C2.08325 11.0566 2.35669 9.70912 2.90356 8.45044C3.45044 7.19176 4.19697 6.08933 5.14315 5.14315C6.08933 4.19697 7.19407 3.45044 8.45737 2.90356C9.72067 2.35669 11.0705 2.08325 12.5068 2.08325C13.9432 2.08325 15.2907 2.35669 16.5494 2.90356C17.8081 3.45044 18.9105 4.19697 19.8567 5.14315C20.8029 6.08933 21.5494 7.19204 22.0963 8.45127C22.6432 9.71051 22.9166 11.056 22.9166 12.4877C22.9166 13.9195 22.6432 15.269 22.0963 16.5364C21.5494 17.8037 20.8029 18.9105 19.8567 19.8567C18.9105 20.8029 17.8078 21.5494 16.5486 22.0963C15.2893 22.6431 13.9438 22.9166 12.5121 22.9166ZM12.4999 21.3541C13.4548 21.3541 14.3879 21.2152 15.2994 20.9374C16.2109 20.6596 17.1093 20.1735 17.9947 19.4791C17.1093 18.8541 16.2065 18.3767 15.2864 18.0468C14.3662 17.7169 13.4374 17.552 12.4999 17.552C11.5624 17.552 10.6336 17.7169 9.71346 18.0468C8.79332 18.3767 7.89054 18.8541 7.00513 19.4791C7.89054 20.1735 8.78898 20.6596 9.70044 20.9374C10.6119 21.2152 11.5451 21.3541 12.4999 21.3541ZM12.4999 11.7187C13.0902 11.7187 13.572 11.532 13.9452 11.1588C14.3185 10.7855 14.5051 10.3037 14.5051 9.71346C14.5051 9.12318 14.3185 8.64141 13.9452 8.26815C13.572 7.89488 13.0902 7.70825 12.4999 7.70825C11.9096 7.70825 11.4279 7.89488 11.0546 8.26815C10.6813 8.64141 10.4947 9.12318 10.4947 9.71346C10.4947 10.3037 10.6813 10.7855 11.0546 11.1588C11.4279 11.532 11.9096 11.7187 12.4999 11.7187Z" fill="black"/>
</svg>
